<?xml version="1.0"?>

<svg baseprofile="tiny" fill="#6f9c76" height="812" stroke="#ffffff" stroke-linecap="round" stroke-linejoin="round" stroke-width=".5" version="1.2" viewbox="0 0 1000 812" width="1000" xmlns="http://www.w3.org/2000/svg">
 <g id="features">
  <path d="M115.6 206.6l3.9-2.3 0.9-0.9 0.5-1.7-0.4-1.5-0.9-1.5-1.8-1.9-0.3-0.2-0.3-0.2-0.4-0.8-0.2-0.8-0.5-4.4 0.4-1.3 0.8-1.1 1.3-1.3 1.3-2.6-0.4-2.6-1.8-5.7 0-3.4 2-10.2-0.7-19.3 0.3-0.8 16.6-12.5 4.9-4.7 12.1-19.1 2.4-16.7 0.2-1.8 0.2-18.6 4.9-0.2 2.2-0.4 2.2-1.1 11.9-11.4 3.5-2.6 4.1-1.6 9.1-2.2 15-3.7 2.5-0.3 1.7 0.8 1.7 1.6 1.7 0.8 4.4 0.3 7.7-1.4 10.9 0.4 2.6-0.5 0.8-0.3 2.4-1.7 1-1.2 1.3-2.9 0.8-1.2 2.1-1 11.2-2 2.5 0.5 21.4 8.6 21.5 8.6 0.7 0.3 0.5 0.5 0.5 0.2 0.7-0.2 4.4-2.5 1.5-0.3 4.1 0.9 1.4 0.3 5 2.9 10.7 10.2 12.3 13.6 6.2 11.4 1.9 3.4 4.5 5.2 2.7 2.6 2.5 1.8 2.3 0.9 2.5 0.3 5.6 0 1.4-0.2 0.4-0.1 1.7-0.8 3.5-3.2 4.7-5.5 1.6-0.3 7.9 1.5 2.8 0 2.3-0.8 27.6-16.7 2.6-1.1 2.6-0.3 19.2 2.8 2.1 0.8 0.8 0.6 1.8 1.7 2.1 1.3 2.6 2.1 1.1 0.5 2.2 0.6 0.1 0 1 0.5 1 0.9 1.9 2.3 7.5 6.9 0.6 0.4 0.8 0.3 0.2 0 0.4-0.2 0.8-0.5 0.9-0.2 1.9-0.3 0.9 0 2 0.5 1.8 0.9 3.3 2.5 1.5 1.6 2.2 3.6 1.3 1.6 2.8 1.6 19.9 6 2.7 0.3 22.1 2.6 2.8 0 4-1.2 1.4-0.1 16.1 1.9 1.6-0.1 0.5-0.2 0.8-0.6 0.9-0.7 0.5-0.6 13-15.5 2.6-2.4 1.4-1 0.8-0.2 0.4 0 0.3 0 0.6-0.7 0.4-0.8 0.3-1.9 0.3-0.8 1.3-1.3 14.4-8.1 3.2-1.3 36.8-8 2.1-0.4 7.3-0.6 13.7 1.6 36.9-0.2 22.9 5.9 8.4 3.4 10.5 6.5 3.5 2.8 1.5 0.7 4.5 1.1 2.5-0.2 1.1-0.2 1.6-1.1 1.2-0.3 3.8 1.4 0.9 0.5 0.3 0.5 0 0.4 0.2 0.3 0.6 0.1 0.2-0.2 0.4-0.4 0.4-0.4 0.8-0.1 0.7 0.5 0.6 0.7 0.5 0.3 0.8-0.4 1.2 0.4 2.7 0.1 2 0 1.8 0.3 1.4 0.5 1.3 0.3 1-0.5 0.4-0.9 0.6-4.2 0.4-0.3 1.7-0.3 0.6-0.2 0.6-0.7 0.4-0.8 0.5-1.7-1.3-0.5 0.6-1.1 0.9-1.4 0.3-1.3 2.7-2.6 0.4-0.3 0.3 0.4 0.5-0.1 0.5-0.4 0.5-0.5 0.2-0.5 0.1-1.3 0.8 0.7 0.6 0.6 0.8 0.6 1.2 0.2 0.6-0.4 0.5-1.8 0.9-0.4 1.7-0.4 1.3-1 1.9-2.4 0.5-1.3 0.1 0 0.3-0.3 0.4 0.3 0.4 0.6 0.2 0.2 1.1 0-0.1-0.3-0.4-0.6-0.3-0.9 0.2-0.3 1-0.4 0.3-0.2 0.2 0 0.7 0.1 0.2-0.1 0-0.2-0.1-0.6 0.1-0.2 2.1-2.4 1-0.8-0.5-0.6-0.5-0.5-0.5-0.3-0.6-0.2 0-0.6 1.1 0.3 1 0.5 0.7-0.1 0.3-1.2 2.1 0.4 2.1-0.4 6.8-3.4 2-0.7 2.1-0.2 0 0.5-0.4 0.8 0.8 0.3 1.4-0.1 1.3-0.4 0 0.3 0 0.8 0.5-0.6 0.6-1.3 0.4-0.3 0.8 0.2 0.1 0.6-0.1 0.8-0.3 0.6 2-0.9 2.1-0.4 1.8-0.7 1.4-1.8-1.1-0.1-0.1-0.4 0.7-1.1 0.3-0.1 0.5 0 0.5-0.1 0.2-0.6-0.1-0.4-0.4-0.6 0.1-0.3 0.4-0.8 0.5-0.7 3-2.9 1.2-0.8-0.1-1.3 0.7-0.6 2.2-0.3 0.1-0.1 18.7 0.9 17.4 24.3 17.3 24.4 4.3 20.7 4.2 20.7 0.1 6 0.1 0.3 0.4 1.3 0 1.5-0.4 2.4 0 0.9 0.7 1.2 1 0.6 1.2 0.2 15.5 0.5 4.9 1.2 2.1 1.1 0.2 0.8-0.4 1.1 0.2 0.8 0.5 0.5 2.2 1.7 0.9 0.4 0 0.5-0.3 0.2-0.8 0.4 1.5 1 1.6 0.9 1.2 1 0.5 1.6 0.4 0.3 1-0.3 1-0.6 0.7-0.2 0.9 0.4 0.3 0.8 0.1 0.8-1.4 1.5-0.2 0.5-0.4 0.5-0.4 0.9-1.3 5.5 0.1 0.8-1.3 0.9 0.1 1.5 1.5 3.4 0.1 0.8 0 0.6-0.3 2.5-0.8 2.5-1.7 7.9-0.5 1.3-2.8 3.7-0.4 0.6 0.2 0.7 0.6 1 0.3 0.1 1.3 0 0.6 0.3 0.3 0.5 0.3 0.6 0.4 0.5 1.2 1.2 0.9 1.3 0.4 1.6 0 2-0.2 1.6-0.6 1.9-0.8 1.8-0.9 1.5-1.3 0.7-3.9 1.4-1.6 1-2.8 2.5-1.6 0.9-4.5 1.4-1.4 0.8-6.8 6.3-0.6 0.2-2 0.3-0.9 0.4-2.1 2.2-1.4 1-1.6 0.8-1.7 0.4-1.5-0.2-5.3-2.3-3-0.8-2.4 0-2.9 2.3-2.8 2.9-2.5 3.2-1.8 3.3-1.3 3.1-0.9 1.2-2.9 1.6-1.2 1.1-0.9 1.3-0.3 1.6 0.5 2.9-0.6 1.2-0.4 1-13.5 19.4-2.1 4.4-2.8 9.6-2.6 14.6-1.7 4.8 0 1 0.5 1.5 0.1 0.9-0.1 1.1-1.2 2.6-0.9 1.1-1.6 1.2-0.7 0.5-1.1 0.6-1.4 0.6-6 0.7-2.5 0.9-1.3 2.7 0 1.5 0.9 2.5 0.3 1.5-0.3 1.8-1.8 2.8-0.6 1.6 0.1 1.7 0.8 1.3 2.2 2.3 0.8 1.7-0.1 1.2-0.8 1.3-0.7 1.8-1 5.2-0.3 5-2.2 5.5-4.9 1.9-6 0.9-5.2 2.3-1 0.9-2.2 2.8-0.9 0.8-0.6 0.5-4.4 2.1-0.5 0.4-0.6 1.4 0.4 0.2 2.2 0.3 0.7 1.6 0.6 2.3-0.1 3-0.3 1.5-0.4 1.3-3.5 6.3-1.6 3.7 0 3 0.5 2.8-1.7 14.5-0.8 3.3-1.7 2.3-1 0.4-0.9 0-1-0.2-1.1 0-0.8 0.4-0.6 0.9-0.6 2.1-1.2 2.5-1.3 1.5-7.8 4.1-1.1 0.3-1.2-0.2-2.4-1.2-1-0.2-1.4 0.1-0.9 0.5-0.9 0.6-1.2 0.6-1 0.1-1.1-0.2-2.1-0.7 0.6 1.1 1.8 4.4 0.2 1 0.1 2.2-0.7 0.7-2.3 1.6-0.6 0.7-0.4 1-0.6 0.9-0.9 0.6-1.6 0.2-2.9-0.5-1.7 0.7-1.7 2.5-0.6 3.3 0.2 3.5 1.2 6.2-0.1 1.5-0.2 0.7-0.4 1-3.1 4.4-0.4 1.8 0 3 0.4 2.9 0.5 1.9 0.2 1.3-0.4 1.1-2.9 3-7.5 10.5-2.7 5-0.5 1.6-0.3 1.6 0.2 1.7 1.1 4.4-0.3 1.6-1 0.9-1.2 0.8-2 3-4.7 4.7-4.5 4.3-4.7 7.1-1.5 1.4-1.4 1-0.6 0.7 0.4 0.4 1.8 0.4 1.1 0.9 3.8 5.5 2.9 3.2 1 1.9-0.7 1.7-0.8 0.3-0.6-0.1-0.7-0.4-0.8 0-1.1 0.3-0.8 0.5-3.2 2.9-1.2 0.8-0.2 0.7-0.1 0.7-0.5 0.6-0.5 0.2-1.2 0-0.8 0.2-0.8-0.1-0.3 0.1-0.3 0.4-0.3 1-0.3 0.4-4.4 2.8-4.6 4.3-1.4 1.9-0.4 2 0.5 1.2 1.6 1.9 0.4 1.3-0.2 2.1-0.5 2-2.2 5.2-1.8 2.5-2 1.1-3 0.3-2 1.7-1.2 2.5-0.4 3.2-0.5 1.7-1.5 1.4-1.9 1-1.9 0.4-0.8 0-1.7-0.4-0.8-0.1-0.3 0.2-0.8 0.7-0.4 0.2-0.6-0.1-0.8-0.5-0.4-0.2-2.3 0.3-4.7 0.5-2-0.3-1.3-1.2-1.4-3.6-1.3-5.9-0.3-3 0.2-3-0.3-3.6-1.4-3.1-2.6-2-7.1-1.3-2.4-2.5-1.5-3.3-0.7-3.5-1.2-3-2.5-1.7-6.3-2.4-5.3-2.8-2-0.6-1.3-1.1-0.4-3.8-1.4-1.8-1.1 2.2-1 2.7-0.6 2.9-0.5 5.9-0.3 0.2-0.4 0.1-0.5 0.4-0.9 1.2-0.6 1.1-0.3 1.2-0.1 1.7-19.5 0.3-2.1-0.7-1.6-1.2-0.8-1.5-1.1-5.6-0.6-1.3-1-0.2-1.8 1-18.6 15.8-1.7 0.8-1.5-0.5-1.5-0.7-1.8-0.1-1.4 1.6-5.8 18.2 0 0.3-1 0.7-2.7 0-0.9 0-2.2 0.5-1.2 0.9-1.7 3.4-1.2 1.2-1.6 0.8-3 1.1-0.5 0.2-2.2 1.4-2.3 4.4-2.1 1.3-1.2 0.1-1-0.1-0.9 0.1-1 0.5-1 1.2-2.2 4.6-1.9 2.7-10.4 8.4-7 7.3-1.6 2.4-1 1-1.2 0.6-0.4 0.5-0.2 2.2-0.2 1-1.4 0.2-1.6-0.6-1.7-0.3-1.3 1.3-1 1.3-2.7 1.8-0.8 1.2 0.2 1.6 0.8 1.2 0.7 1.3-0.4 1.9-1.3 1.7-1.3 1-0.6 1 1 2 1.5 1.5 1.7 1.3 1.4 1.5 0.8 2-0.4 1.8-1.1 1.5-1.4 1.4-1.2 1.5-0.4 1.6 0.1 1.5 0.2 1.5 0.1 1.6-0.5 1.7-1.6 3.2-0.5 1.8 0.1 1 0.6 1.9 0.1 0.8-2.1 10.3-0.5 1-0.8 0.4-0.9 0.1-0.8 0.4-0.8 0.8-1.5 2.3-0.4 1-1.2 3.3-0.7 1.5-1.1 1.6-3 4.7-0.4 1.4-2.1 1.5-0.7 1.2 0.3 1.6 0.2 1.1 0.3 1.1-1.3 1.2-0.1 0-0.1-0.4-0.5-0.3-0.7-0.2-0.6 0.3-0.8 0.7-0.7 0.8-0.3 0.6-0.1 0.6-0.7 1.5-0.2 0.8 0 0.7 0.5 1.1 0 0.7-0.7 1.2-0.8 0.4-1-0.2-1.2-0.3-0.3 0-0.7 0.1-0.6-0.2 0.4-0.7 0.3-0.5 0.3-0.8 0.2-0.8-0.3-0.3-0.7 0.2-1.5 0.7-1 0.2-2.2-0.9-0.1-2.1 0.7-2.7 0.4-2.6-0.5 0-0.5 2.6-1.7 1.3-2.1-0.1-2-1.8 0.2-0.3 0.3-0.7-0.5-0.2-1.6-0.8 0.4-1.1-0.6-0.8-2.1-1.5-1.8-1.1-0.1 0-0.4-1.3-0.9-1.6-0.5-0.7-1-0.3-0.8-0.3-0.9-0.9-0.8-0.8-0.3-0.6-0.5 0 0 0.5 4.1 3.9 1.1 1.3 1.9 3.7 0.3 1.7-1.2 0.9 0.5 1 0.8 1.2 0.8 1 0.7 0.4 0.8 0.7 1.1 3.3 1 1.2-0.3 0.5-0.6 1.7-0.1 0.7 0.3 1.1 0.7 0.4 0.9 0.3 0.7 0.6 0.2 1.7-1.2 1.1-1.4 0.9-0.8 1.2-1 2.3-0.7 0.4-0.8 0.1-3.3 0-4.3-0.5-6.5 0-3.1-0.4-1.5 0-2.5 1.3-1.5 0.2-3.3 0-12.9 1.5-0.8-0.4-0.9-0.1-0.9 0.3-0.6 0.8 0.8 0 0.7 0 0.6 0.2 0.5 0.3-1.6 0.4-2.5 0.2-2.2-0.4-1-1-1-0.3-6.8-0.4 0.3-0.4 0.1-0.2 0.2-0.2 0.5-0.3-1-0.3-0.9 0.2-0.6-0.1-0.2-0.9 0.3-0.4 0.5-0.3 0.5-0.5 0.3-0.8-0.2-0.4-1.4-1.7 0.3-0.3 0.3-0.8-1.1-1.3 0.2-1.9 1.4-3.5-0.5 0-0.8 0.6-0.5 0.3-0.5 0.7-0.3 0.7 0.2 1.1 0.2 0.9 0 0.7-0.6 0.9 0 0.5 1 1.3 0.3 0.6-0.3 0.2-1.2 1.4-0.7 0.6-0.9 0.5-0.9 0-0.7-0.6-0.5 0-0.7 1.5-1.6-0.1-2.6-1.4-1.9-0.1-2-0.4-1.7-0.8-0.9-1.3-0.5 0.3-0.5 0.1-1.4 0.1-0.2 0.2-0.1 0.6-0.3 0.5-0.7 0.3 0 0.5 0.5 0.3 0.5 0.2-0.4 0.5 1 0.4 1.2 1 2.1 0.4 0.4 0.6-0.1 0.6-0.5 0.7-3.4 0.5-0.3-0.4-1.7-2.5-4.8-5.2-0.7-1.6 0-2-0.2-0.7-0.5 0-1.1 0.5-1.6 0-0.3-0.1-0.6-0.7-1.4-1.1-0.6-0.8-1.2-3.5-0.8-1.1-0.1 0.7-0.4 0.7-0.4 0.6-0.2 0 0.2 0.8 0.4 0.1 0.5 0.1 0.5 0.6 0.7 2.6 0.8 1.1 1.3 0.5 2.4 1.1 1.7 2.6 0.3 2.5-2 1 1 0.7 1.1 1.1 0.7 1.3-0.5 1.4-2.1 2.3-1.2 0.6-1.6-0.6-0.1 1.1 0.1 0.4-1.4-0.6-1.1-0.9-0.4-1.1 0.3-1.5-1 0.9-0.2 1.3 0.4 1.3 0.8 1.2-2.1 0.5-0.5 0-0.9-1.8-0.5-1.9-0.2-3.8-1.2-2.1-0.4-1.3 0.9-0.6 0.3-0.6 0.4-1.4 0.2-1.6-0.2-1 0.4 0.2 0.7 0.1 0.5 0.1-0.5-0.8-1.6-1.7-0.3-0.8-0.4-1.7-0.3-0.7-1.4 2-0.5 0-0.3-1.3-0.9-1.7-0.4 1.2 0.2 1.8-0.3 0.6 0.8 1.3 1.7 4.5-0.8 0-0.5-0.1-0.4-0.3-0.3-0.7-0.3 0.3-0.7 0.3-0.7-1.5-0.8-1.3-2.2-2.5 0.2 1.3 0.3 1 1.1 1.9 0.6 0.8 0.3 0.4 0.1 0.6-0.3 0.7-0.5 0.4-0.2 0.4 0.5 0.9 0.8-1.2 1.4-0.4 1.3 0.4 0.7 0.9-0.8 5.3 0.2 1.8 2.7 5.3 0.9 1.2-0.1 0.8-0.4 0.7-0.8 0.3-1-0.1-0.8-0.4-1.4-0.6 0.1 0.3 0.1 0.4 0.2 0.4-1.6-0.5-1.7-0.8-1.7-0.3-1.8 0.6-0.8-0.9-0.6-1.2-0.1-1.4 0.5-1.3-1.3-0.6-1.2-2-0.8-2.4-0.3-2 0.1-1.3 0.4-0.8 0.5-0.5 0.6-0.8 0.3-0.7 0.3-1.2-0.2-1.2-1.2-0.5-2-1.1-1.3-2.5-1.2-4.7-0.2-1.9 0.3-1 0.7-1 0.6-1-0.2-0.6-0.7-0.1-1 0.9-0.7-0.9-0.2-0.5-0.1-0.7-0.7 0.3-0.6 0.1-0.7-0.1-0.6-0.3 0.3 1.3 0.2 1.3 0.3 1.1 1 0.5 0.7 0.5 0.5 1.4 0.6 2.7 0.3 2.9 0.4 1.3 0.6 0.6 1 0.5 1 1.2 1.4 2.4-1.7 1.5-0.4 0.6-0.1 1.1 1.5 7.4 0.8 2.3 1 1.2-0.2 1.7 1.6 1.4 0.9 1.1-1.8 1-2.4 0.4-3 0.2-2.8-0.2-1.7-1-0.2-1.1 0.2-4.4 0.4-0.6 0.1-0.4-0.2-0.4-0.7-0.5-0.1-0.3 0-2.7 0.2-1.2 1.7-4.6 0.2-0.8-0.1-2.2-1.4 1.8-1.2 3.2-0.5 3.4 0.5 2.5-0.3 0.7 0 1.5-0.2 0.9-0.7-1.7-0.2-1-0.2-4.7-0.4-0.9-0.3 0.5-0.4 0.5-0.4 0.3-0.5 0.3 0.4 1.1 0.1 3.5 0.3 1.3 0.9 1.6 0.6 1.5 0.8 2.6 0 0.9-0.5 0.8-0.8 0.3-2.3-0.1-2.2 0.3-0.4-0.5-0.8-2.5-0.3-2.3 0.1-3.5-0.3-2.7-1.1-2-2.3 0.2 2.1 1.7 0.7 2.7-0.2 3.1-1 2.9-0.2 2.5-3.7 0.9-4.4-0.4-2.1-1.4-1 0.2-1 0.3 0.5 1.4-1.2 0.5-1.9 0.1-1.4 0.4-1.5 0.6-3.4 0.1-1.5 0.5-1.8-2.1 1.5-3.2 5-5.6-1-0.1-0.6-0.1-0.5 0-0.6 0.2-2.6 3.1-0.3-4.1-1.3-3.7-0.4 0-0.1 1.5 0.1 2 0.4 1.9 0.6 1.3-0.8-0.7-0.6-0.8-0.9-0.7-1.4-0.3 0.9 1.8 0.8 1.1 0.5 1.3-0.1 2-0.5 1.5-0.5 1.1-0.5 0.4-0.6 0.2-0.5 0.4 0 1.1 0.6-0.3 0.5 0 1 0.3-0.4 0.7-2.1 0.7-2.8 0.2-1.9-0.5-0.3 0.3-0.5 0.4-0.3 0.3-1.2-0.5-0.7-0.7-0.2-1.1 0-1.4 0.3-1.2 1-1.8 0.2-1.1-0.3 0.2-0.8 0.2-0.4 0.1 0-1.2 0.3-2.1-0.8 0-0.8-0.2-0.9-0.4-0.9 0.3-0.3 0.7 0.2 1.2 0.3 1 0.3 0.7-0.3 1 0.4 0.8 0.6 0.9 0.4 1.2-0.3 1.6-0.5 0-0.9-0.8-1.2-0.5-1.7-0.1-0.6-0.4-0.1-2.7 0.5-0.1 0.1-0.2-1-1.5-0.1-0.2-0.1-1.3 0.1-1.3-0.4 0-0.6 2.6-0.4-0.4-1.2-0.7 1.2 2.6 0.2 1.3-0.9 0.8-1.1-0.1-1.2-0.7-0.9-0.9-0.6-0.4-1.6-0.5-1.7-1.4-0.9-1.9 0.8-1.9-0.8-0.1-0.6 0.3-0.2 0.5 0.1 0.9-0.5 0-1.3-1.3-3-1.8-0.9-1.1 0.5 0.3 1 0.4 0.5 0.4-0.6-1-0.9-0.5-1-0.2-1.1-0.4-1.6-1.8-0.6-0.8-2-2.1-0.5-0.3-7-6.6-2.1-2.9-0.8-3.3 0.3 0.1 0.3 0.1 0.5 0.4 0-1.5-3.3-2-0.9-1.5-0.3-1.2-1.9-3.3-0.9-0.9 2.6 1.5-0.6-1.8-2.5-2.7-2.1-5.9-0.6-3.6-0.4-1.1-1-2-0.4-1.2-0.2-1.2-0.2-0.6-0.6-0.6-0.5-0.8-0.3-1.2 0.4-0.9 0.9-0.4 1.2 0.1 1.2 0.4 0.8 0.7 1.4 1.9 0.9 0.6-1.1-3-0.5-1.2 1.6 0.2 1.6 0.4-0.6-1-2.1-2.2-0.7-0.5-0.3 0.3 0 1.4-0.2 0.3-0.7 0.1-0.6 0.1-1.1 0.4-1-0.5-1.8 0.3-0.8-0.4-0.1-0.6 0.1-2.7-0.3-3.5-1.6-6.9 0.4-1 1.8-0.4 5-0.1 1.4-0.4 0.2 0.7 0.2 0.5 0.7 0.9 0.6-0.4 0.5-1.2 0.5-0.5 0.4-0.3 2.6-1 1.3-0.3 1.1 0.1 0.8 0.5 0.5 0-0.6-0.9-1.8-1.6-0.7-1.2-0.3-1-0.1-1.3 0.2-1.2 0.4-0.9 1-0.6 1.2-0.3 2.5 0.1 0.9-0.4 0.9-1 1.1-1.7-1.2 0.5-1 0.9-1.1 0.6-1.4-0.5-0.2 0.4-0.5 0.3-0.4 0.4-1.7-0.4-1.8 0.9-1.1 1.7 0.5 2-0.9 1.8-1 1.2-1.2 0.3-1.6-0.7-0.4-0.5-0.2-0.5-0.3-0.4-0.9-0.1-0.4 0.4 0.2 1 0.5 1 0.5 0.7-4.4-0.3-8.6-2.8-0.3-0.4-0.4-0.9-0.2-0.4-2.4-2.2-1.6-1.1-0.6-1.6-0.1-1.6 0.2-0.8 0.5-0.2 1.2-1.4 0.7-0.4 0.5-0.1 7.5 0.3 2.8 0.4 1.5 0.9 0.6 0 0.7-1.1 1.3-2.7 0.6-0.9 0.9-0.4 1.2 0 1.2 0.4 0.8 0.6 0.2 0.5 0.4 1.7 0.2 0.4 0.8-0.1 0.4-0.2 0.1-0.5 0-0.8-0.6-1.2-1.2-1.3-1.6-1.1-1.3-0.6-1.4 0.1-0.8 0.7-0.9 2.4-0.8 0.7-1.2 0.6-1.4 0.3-1.3-0.1-1.4-0.8-0.6-1.1 0-1.3 1.4-4.1 0.2-1.1-0.1-1.5-0.5 0-2.1 5.7-0.8 1.5-1 1-1.3 0.5-1.8 0.2-0.8 0.2-1.8 1-1.9 0.7-0.4-0.2-1.1-0.7-1.1-1-1.2-1.5-1-1.6-0.7-2.1-0.7-1.1-0.7-1.4-0.3-1.7 0.2-1.6 0.5-1.7 0.7-1.4 0.9-0.6 0.9 0.3 1.5 1.2 0.6 0.2 0.4-0.5-0.2-0.7-0.3-0.8 0.1-0.7 2.4-2.1 6.2-2.3 1.7-2.9-1.6 0.3-2.6 2.3-3 0.9-5.7 3.1-1.1 0.8-3.8 3.5-0.8 0-2.8-6.3-9.2-11.9-1.6-1.5-3-1.3-1.3-1.5-2-3.1-2.6-2.7-2.3-1.9-5.7-3.6-2.5-1.6-4.7-4.4-2.9-1.8-1.2-0.6-6.6-2.9-4.9-0.9-16.3-3-19.4-1.6-32.3 1.6-1.7-0.3-0.9-0.7-0.8-0.8-1.1-0.8 0.7-0.4 0.6-0.1 0.4 0.1 0.5 0.4 1.1-1.1 0.5 0.4 0.1 1.2 0.3 1.1 2.7-2.5 0.4 0.1 0.3 0.6 0.6 0 1-0.3 1.4-0.1 1.3-0.2 1.2-0.6 1-1.2 0.1-0.9-0.1-0.8 0-0.7 0.8-0.2 3.1 0 1.6-0.4 3.3-1 1 0.3 1.7-0.7 1.5-0.9 1.1-1.2 0.4-1.6 1-0.4 6.3-0.9-0.6-0.5-0.5-0.2-0.4 0-0.6 0.1-4.3-1-4.3 1.6-4 2.4-3.7 1.2-1.4 0-0.8 0.1-2.6 1.4-0.9 0.4-0.9 0.1-1 0.1-0.2-0.2-0.9-0.3-0.9 0-0.5-0.4-0.3-0.2-0.3-1-0.1-0.9 0.6-1.7 0-1-1.3 0.7-0.9 0.8-1.7 1.8-0.6 0.3-0.8 0-0.6 0.2-0.3 0.6 0.1 0.5 0.4 1.2 0 0.7-0.3 0.8-1 1.6-0.3 0.9-0.3 0.6-0.5 0.4-0.3 0.5 0.4 0.6 0.4 0.4 0.2 0.4 0.1 0.5 0.4 0.4-0.4 1.7-4.4 0.4-8.5-0.4-10 1.2-11.7-0.6-17 1.6 0.1-4.7 0.5-3.4 0.3-1.5 0.3-0.8 1.4-4.1 0.1-1.6-0.6-3.2 0-1.6 0.9-1.6 1.3-1.2 1-0.6 0.4-0.9-0.3-3.5-0.1-0.8-0.4-0.3-1-0.1-0.8-0.3-0.6-0.4-0.6-0.8-0.4-1.5 0.2-1.7 0.8-3.2-0.3-3.2-1.1-2.9-0.2-2.8 2-2.7 0.8-0.4 1-0.3 0.8-0.4 0.3-0.9-0.5-0.7-1.9-1.6-0.7-0.8-0.3-1 0.1-0.6 0.3-0.5 0.7-1.4 0.6-0.8 0.3-0.7 0.1-1.1-1.6-18.8 0.2-0.8 0.5-0.3 0.8 0 1.7 0.3 0.2-0.2 0.1-0.4 0.1-0.7 0.2-3.2-1.6-2.8-2.3-2.7-1.5-2.8-0.4-3 0.2-2.5 0.7-10.3-0.2-1.1-0.7-1.1-1.8-2-0.8-2.2-0.7-1 0-0.3 0-0.3 0.1-0.6 0.8-1.4 0.3-0.7 0.3-4.9 0.9-4.8 0.2-4.6 0.2-1.4 0.6-1.3 0.8-1.2 0.6-1.5 0-1.6-0.5-1.7-1.5-3.1-0.6-1.7-0.3-1.9 0.1-1.4 0.6-3.2 0-0.7-0.2-1.4 0-0.7 0.4-1 1.5-1.7 0.6-0.9 0.6-2.6-0.1-2.2-1.5-18.7 0-0.1 0-0.8 0.4-0.6 1.3-0.5 0.4-0.4 0.1-0.7-0.4-1.2-0.1-0.7 0.3-1.2 1-2.2 0-1.1-0.3-0.6-0.4-0.1-0.3-0.2-0.1-0.6 0.2-0.1 0.8-1.3 0.2-0.5 0.5-2.1 0.1-4.9-0.2-2 5.8 0.5 1-0.2 0.8-0.5 0.6-0.7 0.8-0.5 0.8-0.2 2.4 0 0.8 0.1 0.8 0.4 0.8 0.5 0.7 0.3 0.9 0 5.2-1.3 1.8-1.3 1.2-2.4 2.5-7.9 1.6-3 0.4-1.6 0.1-5-0.3-1.2-1-2.5-0.5-2.1 0.3-2.1 1.5-2.4 0.5-0.4 1.2-0.4 0.6-0.5 4.6-6.1 0.1-0.4-0.4-1-0.1-0.5 0.6-1.9 1.2-0.4 1.5 0.3 1.3 0.1 2.5-1.4 0.5-2-0.6-2.3-0.9-2.4-0.3-1.5 0.2-1.8 0.7-1.5 1.2-0.9 5.4-2.3 3-0.7 4.5 0.5 1.4-1.3 2-3.7 2.4-2.9 0.8-1.5 0.5-6.6 0.5-1.3 1.1-1.1 1.1-0.5 1-0.7 0.7-1.7 0-0.4 0.2-1.4-0.2-1.2-0.7-1-5.1-5.3-1.1-1.8-0.1-1.4 1.6-3.5 1.9-3 0.3-0.9 0.1-1.5 0.2-0.5 0.5-0.7 1.5-1.5 1.5-0.5 1.6 0.3 4.8 2.6 1.2-0.2 1.2-1.5 0.5-1.4 0-4 0.7-2 2-3.9 0.5-2 0-2.4 0-1.9-0.4-2.2-0.7-1.5-0.9-0.6-1.1-0.2-1-0.3-0.7-0.8-0.7-2.5-0.4-0.9-0.6-0.6-0.6-0.6-0.6-0.6-0.4-1 0.1-1.3 1.6-4.1 0.1-2.2-1.5-6.9-0.8-1.3-0.6-1.5-0.3-1.5 0-1.7 0.8-3-0.7-0.6-0.6 0-0.1 0-0.7 0.1-0.6-0.1-1.8-1.7-13.6-19.3-1.1-2.1-0.2-1.8 1.6-4.1 0.4-1.2 0.9-3.5 5.3-9 1.7-1.8z m298.8 552.3l2.5-0.3 0.8 0.3-0.4 1-0.7 0.9-1.3 0.3-2.9-0.1-1.2 0.1-3.7 1.4-1.3 0.1-5.6-0.3-1.2-0.6-0.4-1 0.7-1.4 0.7-0.3 3.7-1.2 0.9 0.4 2.7 1.3 1.3 0.4 1.4-0.2 2.7-0.7 1.3-0.1z m-20.2-0.6l3.5-0.3 0.9 0.3-0.9 0.8-0.5 0.9-0.1 1.1 0 1.1-0.3 1.2-0.8 0.8-1 0.6-1.1 0.5-6.7 1.4-2.6-0.3-0.7-0.9 0.7-1.4 2.4-2.6 1.8-2.6 1.4-1.7 0.3-0.7 0.3-1.3 1.1 0.6 1.1 2.1 1.2 0.4z" id="NG" name="Nigeria">
  </path>
 </g>
 <g id="points">
  <circle class="4.752568550854937|3.271024698580586" cx="90.9" cy="738.5" id="0">
  </circle>
  <circle class="8.595819986532453|9.270451782319844" cx="545.5" cy="445.3" id="1">
  </circle>
  <circle class="13.399884281129347|14.069993449311253" cx="909.1" cy="74.4" id="2">
  </circle>
 </g>
 <g id="label_points">
  <circle class="Nigeria" cx="411.6" cy="380.5" id="NG">
  </circle>
 </g>
</svg>